<?xml version="1.0" encoding="utf-8"?>
<svg xmlns="http://www.w3.org/2000/svg" xmlns:xlink="http://www.w3.org/1999/xlink" style="margin: auto; background: none; display: block; shape-rendering: auto;" width="204px" height="204px" viewBox="0 0 100 100" preserveAspectRatio="xMidYMid">
<g transform="translate(50 50)">
<g>
<animateTransform attributeName="transform" type="rotate" values="0;60" keyTimes="0;1" dur="0.1984126984126984s" repeatCount="indefinite"></animateTransform><path d="M30.508195620193604 -5.5 L38.508195620193604 -5.5 L38.508195620193604 5.5 L30.508195620193604 5.5 A31 31 0 0 1 20.017237530911217 23.6708724307128 L20.017237530911217 23.6708724307128 L24.017237530911217 30.599075660988312 L14.49095808928239 36.09907566098831 L10.490958089282389 29.170872430712805 A31 31 0 0 1 -10.490958089282378 29.17087243071281 L-10.490958089282378 29.17087243071281 L-14.490958089282376 36.09907566098832 L-24.01723753091121 30.59907566098832 L-20.01723753091121 23.67087243071281 A31 31 0 0 1 -30.5081956201936 5.500000000000006 L-30.5081956201936 5.500000000000006 L-38.508195620193604 5.500000000000007 L-38.508195620193604 -5.499999999999998 L-30.508195620193604 -5.499999999999999 A31 31 0 0 1 -20.017237530911228 -23.670872430712794 L-20.017237530911228 -23.670872430712794 L-24.01723753091123 -30.5990756609883 L-14.490958089282403 -36.099075660988305 L-10.4909580892824 -29.1708724307128 A31 31 0 0 1 10.490958089282362 -29.170872430712816 L10.490958089282362 -29.170872430712816 L14.490958089282357 -36.099075660988326 L24.01723753091119 -30.599075660988333 L20.017237530911196 -23.67087243071282 A31 31 0 0 1 30.5081956201936 -5.500000000000011 M0 -20A20 20 0 1 0 0 20 A20 20 0 1 0 0 -20" fill="#1d1d1d"></path></g></g>
<!-- [ldio] generated by https://loading.io/ --></svg>